<?xml version="1.0" encoding="utf-8"?>
<!-- Generator: Adobe Illustrator 22.0.0, SVG Export Plug-In . SVG Version: 6.00 Build 0)  -->
<svg version="1.1" xmlns="http://www.w3.org/2000/svg" xmlns:xlink="http://www.w3.org/1999/xlink" x="0px" y="0px"
	 viewBox="0 0 256 256" style="enable-background:new 0 0 256 256;" xml:space="preserve">
<style type="text/css">
	.st0{display:none;}
	.st1{display:inline;}
	.st2{fill:none;stroke:#6B1D1D;stroke-width:0.5;stroke-miterlimit:10;}
	.st3{fill:#3A312A;}
	.st4{fill:#87796F;}
	.st5{fill:#D5DE58;}
	.st6{fill:#695B51;}
	.st7{fill:#FCE8CB;}
	.st8{fill:#F16C7A;}
	.st9{fill:#8AC6DD;}
	.st10{fill:#DECAAD;}
	.st11{fill:#D6DF58;}
	.st12{fill-rule:evenodd;clip-rule:evenodd;fill:#FCE8CB;}
	.st13{fill:#F5978A;}
	.st14{fill:#D7E057;}
	.st15{fill-rule:evenodd;clip-rule:evenodd;fill:#87796F;}
	.st16{fill:#6CA8BF;}
	.st17{fill:#B9C239;}
	.st18{fill:#D34E5C;}
	.st19{fill:#FAE6CA;}
	.st20{fill:#F8E4C8;}
	.st21{fill:#8AC5DC;}
	.st22{fill:#EF6D7A;}
	.st23{fill:#EB6E7A;}
	.st24{fill:#89C4DB;}
	.st25{fill-rule:evenodd;clip-rule:evenodd;fill:#F16C7A;}
	.st26{fill:#F7E3C7;}
	.st27{fill:#F6E2C6;}
	.st28{fill:#ED6E7A;}
	.st29{fill:#8AC3DA;}
	.st30{fill:#D5DC57;}
	.st31{fill-rule:evenodd;clip-rule:evenodd;fill:#D7E057;}
	.st32{fill-rule:evenodd;clip-rule:evenodd;fill:#F8E4C8;}
	.st33{fill:#D4DB56;}
	.st34{fill:#F59689;}
	.st35{fill:#DDC9AC;}
	.st36{fill:#D24E5C;}
	.st37{fill:#6A5C52;}
	.st38{fill:#6CA6BE;}
	.st39{fill:#B8C136;}
	.st40{fill-rule:evenodd;clip-rule:evenodd;fill:#FAE6CA;}
</style>
<g id="Layer_2" class="st0">
	<g class="st1">
		<g>
			<line class="st2" x1="0" y1="4.829" x2="256" y2="4.829"/>
			<line class="st2" x1="0" y1="16.56" x2="256" y2="16.56"/>
			<line class="st2" x1="0" y1="28.29" x2="256" y2="28.29"/>
			<line class="st2" x1="0" y1="40.021" x2="256" y2="40.021"/>
			<line class="st2" x1="0" y1="51.751" x2="256" y2="51.751"/>
			<line class="st2" x1="0" y1="63.482" x2="256" y2="63.482"/>
			<line class="st2" x1="0" y1="75.213" x2="256" y2="75.213"/>
			<line class="st2" x1="0" y1="86.943" x2="256" y2="86.943"/>
			<line class="st2" x1="0" y1="98.674" x2="256" y2="98.674"/>
			<line class="st2" x1="0" y1="110.404" x2="256" y2="110.404"/>
			<line class="st2" x1="0" y1="122.135" x2="256" y2="122.135"/>
			<line class="st2" x1="0" y1="133.865" x2="256" y2="133.865"/>
			<line class="st2" x1="0" y1="145.596" x2="256" y2="145.596"/>
			<line class="st2" x1="0" y1="157.326" x2="256" y2="157.326"/>
			<line class="st2" x1="0" y1="169.057" x2="256" y2="169.057"/>
			<line class="st2" x1="0" y1="180.788" x2="256" y2="180.788"/>
			<line class="st2" x1="0" y1="192.518" x2="256" y2="192.518"/>
			<line class="st2" x1="0" y1="204.249" x2="256" y2="204.249"/>
			<line class="st2" x1="0" y1="215.979" x2="256" y2="215.979"/>
			<line class="st2" x1="0" y1="227.71" x2="256" y2="227.71"/>
			<line class="st2" x1="0" y1="239.44" x2="256" y2="239.44"/>
			<line class="st2" x1="0" y1="251.171" x2="256" y2="251.171"/>
		</g>
		<g>
			<line class="st2" x1="251.171" y1="0" x2="251.171" y2="256"/>
			<line class="st2" x1="239.44" y1="0" x2="239.44" y2="256"/>
			<line class="st2" x1="227.71" y1="0" x2="227.71" y2="256"/>
			<line class="st2" x1="215.979" y1="0" x2="215.979" y2="256"/>
			<line class="st2" x1="204.249" y1="0" x2="204.249" y2="256"/>
			<line class="st2" x1="192.518" y1="0" x2="192.518" y2="256"/>
			<line class="st2" x1="180.788" y1="0" x2="180.788" y2="256"/>
			<line class="st2" x1="169.057" y1="0" x2="169.057" y2="256"/>
			<line class="st2" x1="157.326" y1="0" x2="157.326" y2="256"/>
			<line class="st2" x1="145.596" y1="0" x2="145.596" y2="256"/>
			<line class="st2" x1="133.865" y1="0" x2="133.865" y2="256"/>
			<line class="st2" x1="122.135" y1="0" x2="122.135" y2="256"/>
			<line class="st2" x1="110.404" y1="0" x2="110.404" y2="256"/>
			<line class="st2" x1="98.674" y1="0" x2="98.674" y2="256"/>
			<line class="st2" x1="86.943" y1="0" x2="86.943" y2="256"/>
			<line class="st2" x1="75.213" y1="0" x2="75.213" y2="256"/>
			<line class="st2" x1="63.482" y1="0" x2="63.482" y2="256"/>
			<line class="st2" x1="51.751" y1="0" x2="51.751" y2="256"/>
			<line class="st2" x1="40.021" y1="0" x2="40.021" y2="256"/>
			<line class="st2" x1="28.29" y1="0" x2="28.29" y2="256"/>
			<line class="st2" x1="16.56" y1="0" x2="16.56" y2="256"/>
			<line class="st2" x1="4.829" y1="0" x2="4.829" y2="256"/>
		</g>
	</g>
</g>
<g id="Layer_1">
	<g>
		<path class="st9" d="M142.053,239.345h75.307c3.848,0,6.967-3.119,6.967-6.968v-16.034c0-3.848-3.119-6.968-6.967-6.968H49.987
			c-3.848,0-6.968,3.12-6.968,6.968v16.034c0,3.848,3.119,6.968,6.968,6.968h79.307H142.053z"/>
		<path class="st3" d="M217.359,240.845h-75.307c-0.828,0-1.5-0.672-1.5-1.5c0-0.828,0.672-1.5,1.5-1.5h75.307
			c3.015,0,5.468-2.453,5.468-5.468v-16.033c0-3.015-2.453-5.468-5.468-5.468H49.986c-3.015,0-5.467,2.453-5.467,5.468v16.033
			c0,3.015,2.452,5.468,5.467,5.468h79.308c0.828,0,1.5,0.672,1.5,1.5c0,0.828-0.672,1.5-1.5,1.5H49.986
			c-4.669,0-8.467-3.799-8.467-8.468v-16.033c0-4.669,3.798-8.468,8.467-8.468h167.373c4.669,0,8.468,3.799,8.468,8.468v16.033
			C225.827,237.046,222.028,240.845,217.359,240.845z"/>
		<rect x="154.723" y="209.376" class="st8" width="37.624" height="29.969"/>
		<path class="st3" d="M192.347,240.845h-37.623c-0.828,0-1.5-0.672-1.5-1.5v-29.969c0-0.828,0.672-1.5,1.5-1.5h37.623
			c0.828,0,1.5,0.672,1.5,1.5v29.969C193.847,240.173,193.175,240.845,192.347,240.845z M156.224,237.845h34.623v-26.969h-34.623
			V237.845z"/>
		<path class="st7" d="M77.279,180.655H64.987c-3.848,0-6.968,3.12-6.968,6.968v14.784c0,3.848,3.12,6.968,6.968,6.968h132.394
			c3.848,0,6.968-3.12,6.968-6.968v-14.784c0-3.848-3.12-6.968-6.968-6.968H90.066H77.279z"/>
		<path class="st3" d="M197.381,210.875H64.986c-4.669,0-8.468-3.799-8.468-8.468v-14.784c0-4.669,3.799-8.468,8.468-8.468h12.293
			c0.828,0,1.5,0.672,1.5,1.5c0,0.828-0.672,1.5-1.5,1.5H64.986c-3.015,0-5.468,2.453-5.468,5.468v14.784
			c0,3.015,2.453,5.468,5.468,5.468h132.395c3.015,0,5.468-2.453,5.468-5.468v-14.784c0-3.015-2.453-5.468-5.468-5.468H90.066
			c-0.828,0-1.5-0.672-1.5-1.5c0-0.828,0.672-1.5,1.5-1.5h107.315c4.669,0,8.468,3.799,8.468,8.468v14.784
			C205.849,207.076,202.05,210.875,197.381,210.875z"/>
		<rect x="147.02" y="180.655" class="st14" width="30.987" height="28.721"/>
		<path class="st3" d="M178.008,210.876H147.02c-0.828,0-1.5-0.672-1.5-1.5v-28.721c0-0.828,0.672-1.5,1.5-1.5h30.987
			c0.828,0,1.5,0.672,1.5,1.5v28.721C179.508,210.204,178.836,210.876,178.008,210.876z M148.52,207.876h27.987v-25.721H148.52
			V207.876z"/>
		<path class="st14" d="M62.584,26.332c0,0,3.408,12.659,13.222,13.246c0,0-13.1,4.525-13.321,14.202
			c0,0-2.579-13.572-12.925-14.059C49.56,39.722,61.611,37.896,62.584,26.332z"/>
		<path class="st3" d="M62.484,55.279c-0.713,0-1.335-0.506-1.473-1.217c-0.023-0.124-2.494-12.417-11.522-12.843
			c-0.771-0.036-1.388-0.65-1.428-1.421c-0.04-0.77,0.511-1.444,1.273-1.561c0.441-0.068,10.895-1.817,11.754-12.032
			c0.061-0.726,0.635-1.301,1.359-1.367c0.729-0.066,1.393,0.399,1.584,1.101c0.031,0.116,3.26,11.626,11.864,12.141
			c0.714,0.042,1.297,0.583,1.396,1.292c0.098,0.708-0.318,1.388-0.994,1.622c-0.121,0.042-12.119,4.311-12.312,12.819
			c-0.018,0.767-0.61,1.396-1.375,1.46C62.568,55.277,62.526,55.279,62.484,55.279z M54.742,39.551
			c3.879,1.969,6.23,5.745,7.588,8.876c2.026-4.021,5.941-6.787,8.949-8.427c-4.135-1.843-6.783-5.651-8.335-8.723
			C61.151,35.637,57.673,38.146,54.742,39.551z"/>
		<path class="st14" d="M40.886,43.312c0,0,2.411,8.954,9.352,9.369c0,0-9.266,3.201-9.422,10.046c0,0-1.824-9.6-9.142-9.944
			C31.673,52.783,40.197,51.492,40.886,43.312z"/>
		<path class="st3" d="M40.814,64.228c-0.714,0-1.337-0.507-1.473-1.22c-0.016-0.082-1.704-8.442-7.739-8.727
			c-0.771-0.036-1.388-0.65-1.428-1.421c-0.04-0.77,0.511-1.444,1.273-1.561c0.296-0.047,7.364-1.242,7.942-8.113
			c0.062-0.726,0.636-1.303,1.361-1.368c0.718-0.053,1.391,0.399,1.582,1.101l0,0c0.021,0.079,2.227,7.92,7.993,8.265
			c0.714,0.042,1.299,0.584,1.396,1.293c0.097,0.709-0.32,1.388-0.996,1.622c-0.081,0.028-8.282,2.953-8.412,8.662
			c-0.017,0.768-0.611,1.398-1.376,1.461C40.897,64.226,40.855,64.228,40.814,64.228z M36.295,52.7
			c2.107,1.333,3.524,3.395,4.447,5.279c1.376-2.232,3.516-3.872,5.365-4.973c-2.287-1.269-3.885-3.35-4.941-5.223
			C39.993,50.07,38.151,51.659,36.295,52.7z"/>
		<path class="st14" d="M40.886,16.655c0,0,2.411,8.954,9.352,9.369c0,0-9.266,3.201-9.422,10.045c0,0-1.824-9.6-9.142-9.944
			C31.673,26.126,40.197,24.834,40.886,16.655z"/>
		<path class="st3" d="M40.814,37.57c-0.714,0-1.337-0.507-1.473-1.22c-0.016-0.082-1.704-8.442-7.739-8.727
			c-0.771-0.036-1.388-0.65-1.428-1.421c-0.04-0.77,0.511-1.444,1.273-1.561c0.296-0.047,7.364-1.243,7.942-8.113
			c0.062-0.726,0.636-1.303,1.361-1.368c0.718-0.052,1.391,0.399,1.582,1.102l0,0c0.021,0.079,2.227,7.92,7.993,8.265
			c0.714,0.042,1.299,0.584,1.396,1.293c0.097,0.709-0.32,1.388-0.996,1.622c-0.081,0.028-8.282,2.953-8.412,8.662
			c-0.017,0.768-0.611,1.397-1.376,1.461C40.897,37.568,40.855,37.57,40.814,37.57z M36.295,26.043
			c2.107,1.332,3.524,3.394,4.447,5.279c1.376-2.233,3.516-3.872,5.365-4.973c-2.287-1.268-3.885-3.35-4.941-5.224
			C39.992,23.412,38.15,25.001,36.295,26.043z"/>
		<rect x="123.131" y="137.097" class="st4" width="21.085" height="26.317"/>
		<path class="st3" d="M144.216,164.914h-21.085c-0.828,0-1.5-0.672-1.5-1.5v-26.317c0-0.828,0.672-1.5,1.5-1.5h21.085
			c0.828,0,1.5,0.672,1.5,1.5v26.317C145.716,164.242,145.044,164.914,144.216,164.914z M124.631,161.914h18.085v-23.317h-18.085
			V161.914z"/>
		<path class="st4" d="M139.162,180.655h26.702c0-9.522-7.719-17.241-17.241-17.241h-29.9c-9.522,0-17.241,7.719-17.241,17.241
			h27.684H139.162z"/>
		<path class="st3" d="M165.864,182.155h-64.382c-0.828,0-1.5-0.672-1.5-1.5c0-10.334,8.407-18.741,18.741-18.741h29.899
			c10.334,0,18.741,8.407,18.741,18.741C167.364,181.483,166.692,182.155,165.864,182.155z M103.054,179.155h61.239
			c-0.758-7.979-7.496-14.241-15.67-14.241h-29.899C110.55,164.914,103.812,171.177,103.054,179.155z"/>
		<path class="st4" d="M79.154,121.528c-1.541-1.541-1.541-4.04,0-5.581l91.161-91.161c1.541-1.541,4.04-1.541,5.581,0
			c1.541,1.541,1.541,4.04,0,5.581l-91.161,91.161C83.194,123.069,80.695,123.069,79.154,121.528z"/>
		<path class="st3" d="M81.943,124.183c-1.454,0-2.822-0.566-3.851-1.595c-1.028-1.028-1.595-2.396-1.595-3.851
			c0-1.455,0.566-2.823,1.595-3.852l91.161-91.16c1.028-1.029,2.396-1.596,3.852-1.596c1.454,0,2.822,0.566,3.851,1.596
			c1.028,1.028,1.595,2.397,1.595,3.852c0,1.454-0.566,2.822-1.595,3.851l-91.161,91.16
			C84.767,123.616,83.398,124.183,81.943,124.183z M173.105,25.13c-0.654,0-1.269,0.254-1.73,0.717l-91.161,91.16
			c-0.954,0.954-0.954,2.506,0,3.46c0.955,0.954,2.509,0.953,3.46,0l91.161-91.16c0.954-0.954,0.954-2.506,0-3.46
			C174.373,25.384,173.759,25.13,173.105,25.13z"/>
		<circle class="st21" cx="127.524" cy="73.157" r="51.634"/>
		<path class="st3" d="M127.524,126.267c-13.606,0-27.213-5.18-37.571-15.538c-20.717-20.717-20.717-54.427,0-75.144
			c10.035-10.036,23.379-15.562,37.571-15.562s27.536,5.526,37.571,15.562c20.717,20.717,20.717,54.427,0,75.144l0,0
			C154.737,121.087,141.131,126.267,127.524,126.267z M127.524,23.022c-13.392,0-25.981,5.215-35.45,14.684
			c-19.547,19.548-19.547,51.354,0,70.901c19.548,19.548,51.353,19.547,70.9,0c19.547-19.548,19.547-51.354,0-70.901
			C153.506,28.237,140.916,23.022,127.524,23.022z M164.035,109.668h0.01H164.035z"/>
		<path class="st3" d="M110.663,118.535c-8.144,0-15.431-2.527-20.71-7.807C75.908,96.683,81.335,68.4,102.052,47.684
			s48.998-26.145,63.044-12.099c14.046,14.047,8.618,42.328-12.099,63.045C140.066,111.561,124.188,118.535,110.663,118.535z
			 M144.339,30.719c-12.688,0-27.795,6.715-40.166,19.086c-19.547,19.548-24.974,45.927-12.099,58.803
			c12.877,12.876,39.255,7.448,58.802-12.099s24.975-45.926,12.099-58.803C158.247,32.979,151.699,30.719,144.339,30.719z"/>
		<path class="st3" d="M94.525,112.365c-1.897,0-3.452-0.517-4.572-1.637c-6.838-6.838,8.83-29.886,27.044-48.1
			c18.213-18.213,41.261-33.881,48.099-27.044c3.92,3.919,0.115,12.609-3.767,19.209c-5.171,8.791-13.438,19.051-23.277,28.891
			C122.822,98.914,104.212,112.365,94.525,112.365z M160.377,36.856c-6.862,0-23.361,9.997-41.259,27.894
			c-20.891,20.893-31.02,39.882-27.044,43.857c0.57,0.569,1.449,0.85,2.598,0.85c6.862,0.002,23.361-9.997,41.259-27.894
			c20.892-20.892,31.021-39.881,27.044-43.857C162.404,37.137,161.525,36.856,160.377,36.856z"/>
		<path class="st3" d="M144.386,118.535c-13.524,0-29.402-6.974-42.334-19.905l0,0C81.335,77.913,75.908,49.631,89.953,35.585
			c14.046-14.047,42.327-8.618,63.044,12.099s26.145,48.998,12.099,63.045C159.817,116.007,152.527,118.535,144.386,118.535z
			 M104.173,96.509c19.547,19.546,45.923,24.973,58.802,12.099c12.876-12.877,7.448-39.256-12.099-58.803
			c-19.548-19.547-45.925-24.975-58.802-12.099C79.199,50.582,84.626,76.961,104.173,96.509L104.173,96.509z"/>
		<path class="st3" d="M160.523,112.364c-9.687,0-28.296-13.449-43.526-28.68l0,0c-18.214-18.214-33.882-41.262-27.044-48.1
			c6.84-6.845,29.886,8.831,48.099,27.044c9.84,9.84,18.106,20.1,23.277,28.891c3.882,6.6,7.686,15.29,3.767,19.209
			C163.976,111.849,162.42,112.364,160.523,112.364z M119.118,81.563c20.892,20.892,39.882,31.021,43.856,27.044
			c3.977-3.977-6.152-22.966-27.044-43.857c-20.892-20.891-39.878-31.021-43.856-27.044C88.099,41.682,98.228,60.671,119.118,81.563
			L119.118,81.563z"/>
		<path class="st8" d="M79.537,121.911c-2.856-2.856-5.467-5.97-7.762-9.254c-1.248-1.787-0.811-4.247,0.976-5.495
			c1.786-1.248,4.243-0.818,5.495,0.975c2.03,2.907,4.342,5.663,6.872,8.193c23.594,23.594,61.985,23.594,85.579,0
			c23.594-23.594,23.594-61.985,0-85.579c-2.53-2.53-5.286-4.842-8.193-6.872c-1.788-1.248-2.224-3.709-0.975-5.495
			c1.248-1.787,3.708-2.224,5.495-0.976c3.285,2.295,6.398,4.906,9.254,7.762c26.672,26.672,26.672,70.07,0,96.742
			C149.607,148.583,106.209,148.583,79.537,121.911z"/>
		<path class="st3" d="M127.908,143.415c-18.693,0-36.249-7.26-49.432-20.443c-2.918-2.918-5.587-6.1-7.932-9.456
			c-0.833-1.192-1.152-2.639-0.897-4.071c0.255-1.433,1.052-2.68,2.245-3.513c2.457-1.72,5.861-1.118,7.583,1.346
			c1.979,2.835,4.235,5.523,6.703,7.992c23.009,23.009,60.447,23.011,83.458,0c23.01-23.01,23.01-60.449,0-83.459
			c-2.468-2.468-5.156-4.723-7.991-6.703c-1.192-0.832-1.99-2.08-2.244-3.514c-0.254-1.432,0.065-2.878,0.898-4.07
			c1.72-2.461,5.123-3.065,7.583-1.346c3.357,2.345,6.539,5.013,9.456,7.931c27.257,27.257,27.257,71.606,0,98.863
			C164.156,136.155,146.602,143.415,127.908,143.415z M75.007,107.951c-0.483,0-0.972,0.143-1.396,0.439
			c-0.536,0.375-0.895,0.936-1.009,1.579c-0.114,0.643,0.028,1.292,0.402,1.827c2.245,3.213,4.8,6.26,7.594,9.054
			c12.616,12.616,29.418,19.564,47.311,19.564c17.892,0,34.693-6.948,47.31-19.564c26.087-26.087,26.087-68.534,0-94.621
			c-2.794-2.794-5.839-5.348-9.053-7.593c-1.104-0.773-2.634-0.501-3.406,0.606c-0.374,0.535-0.518,1.185-0.403,1.828
			c0.114,0.644,0.472,1.203,1.008,1.577c2.98,2.081,5.804,4.45,8.395,7.042c24.18,24.18,24.18,63.521,0,87.701
			c-24.181,24.181-63.521,24.179-87.7,0c-2.593-2.592-4.961-5.417-7.041-8.396C76.541,108.315,75.779,107.951,75.007,107.951z"/>
		<path class="st16" d="M222.823,216.345v16.03c0,3.02-2.45,5.47-5.46,5.47h-15c3.01,0,5.46-2.45,5.46-5.47v-16.03
			c0-3.02-2.45-5.47-5.46-5.47h15C220.373,210.875,222.823,213.325,222.823,216.345z"/>
		<path class="st10" d="M202.853,187.625v14.78c0,3.02-2.46,5.47-5.47,5.47h-15c3.01,0,5.47-2.45,5.47-5.47v-14.78
			c0-3.02-2.46-5.47-5.47-5.47h15C200.393,182.155,202.853,184.605,202.853,187.625z"/>
	</g>
</g>
</svg>
